# xmcd
#
# Track frame offsets: 
#        183
#        10840
#        22940
#        35853
#        46453
#        57915
#        68725
#        77900
#        91130
#        102288
#        113135
#        125415
#        137263
#        150398
#        161175
#        173040
#        186205
#        198840
#        209743
#        220918
#        234213
#        246815
#        256318
#        268218
#        281403
#        292665
#        306338
#
# Disc length: 4254 seconds
#
# Revision: 16
# Processed by: cddbd v1.5.2PL0 Copyright (c) Steve Scherf et al.
# Submitted via: ExactAudioCopyFreeDBPlugin 1.0
#
DISCID=79109c1b
DTITLE=Various Artist - The Complete Stax-Volt Singles, 1959-1975
DYEAR=1991
DGENRE=Soul
TTITLE0=Rufus Thomas - Jump Back
TTITLE1=Otis Redding - Chained and Bound
TTITLE2=Barbara and The Browns - In My Heart
TTITLE3=Johnny Jenkins - Spunky
TTITLE4=Wendy Rene - Bar-B-Q
TTITLE5=The Mad Lads - The Sidewalk Surf
TTITLE6=Booker T. and The M.G.'s - Can't Be Still
TTITLE7=Carla Thomas - A Woman's Love
TTITLE8=The Baracudas - Yank Me (Doodle)
TTITLE9=Otis Redding - That's How Strong My Love Is
TTITLE10=Otis Redding - Mr. Pitiful
TTITLE11=Del-Rays - Don't Let Her Be Your Baby
TTITLE12=David Porter - Can't See You When I Want To
TTITLE13=Barbara and The Browns - My Lover
TTITLE14=Admirals - Got You on My Mind
TTITLE15=Carla Thomas - How Do You Quit (Someone You Love)
TTITLE16=Gorgeous George - Biggest Fool in Town
TTITLE17=The Mar-Keys - Banana Juice
TTITLE18=Rufus Thomas - Little Sally Walker
TTITLE19=Sam and Dave - A Place Nobody Can Find
TTITLE20=Sam and Dave - Goodnight Baby
TTITLE21=Booker T. and The M.G.'s - Boot Leg
TTITLE22=Booker T. and The M.G.'s - Outrage
TTITLE23=Otis Redding - I've Been Loving You Too Long (To Stop Now)
TTITLE24=Otis Redding - I'm Depending on You
TTITLE25=The Astors - Candy
TTITLE26=Wendy Rene - Give You What I Got
EXTD=
EXTT0=
EXTT1=
EXTT2=
EXTT3=
EXTT4=
EXTT5=
EXTT6=
EXTT7=
EXTT8=
EXTT9=
EXTT10=
EXTT11=
EXTT12=
EXTT13=
EXTT14=
EXTT15=
EXTT16=
EXTT17=
EXTT18=
EXTT19=
EXTT20=
EXTT21=
EXTT22=
EXTT23=
EXTT24=
EXTT25=
EXTT26=
PLAYORDER=
